<?xml version="1.0" encoding="UTF-8"?>
<svg version="1.1" xmlns="http://www.w3.org/2000/svg" width="1087" height="1024">
<path d="M0 0 C1.37119272 0.19575983 2.74245214 0.39105288 4.11376953 0.5859375 C57.22796667 8.2326145 111.02527562 21.88670576 160 44 C161.19786133 44.53512207 161.19786133 44.53512207 162.41992188 45.08105469 C187.5699077 56.37478292 211.36691232 70.90010576 233 88 C233.90927246 88.71639648 233.90927246 88.71639648 234.83691406 89.44726562 C243.71579126 96.46817985 252.21635383 103.77531521 260.44433594 111.54589844 C262.02224075 113.02078875 263.61994659 114.47053509 265.2265625 115.9140625 C270.10656373 120.30208881 274.82218085 124.6881163 279.04296875 129.73046875 C281.14623239 132.16958287 283.34249589 134.49788203 285.55761719 136.83496094 C292.0492051 143.70113557 298.00814988 150.82320325 303.7265625 158.34130859 C304.91194339 159.88530357 306.12676207 161.40657465 307.34375 162.92578125 C360.72050347 230.09152936 393.66071164 315.97081661 413.203125 462.046875 C413.21009927 463.85551986 413.21714027 465.66416447 413.22424316 467.47280884 C413.24356079 473.23187554 413.24841928 478.99090444 413.25 484.75 C413.25088371 486.21742016 413.25088371 486.21742016 413.25178528 487.71448517 C413.26375558 515.8310673 413.18627975 543.837576 410.22784424 571.82989502 C409.99656379 574.03272823 409.77805112 576.23654175 409.56201172 578.44091797 C407.64159131 597.78570258 404.5292788 616.85358704 400.45574951 635.86395264 C399.97901636 638.09834799 399.51083958 640.33443201 399.04345703 642.57080078 C392.71057396 672.70484217 384.89379418 702.96348195 371.14941406 730.67626953 C369.90244455 733.19722446 368.69729824 735.73613198 367.4921875 738.27734375 C343.7256689 787.75032577 307.77638339 830.47649752 269.13867188 868.99169922 C267.10167579 871.023262 265.07018049 873.06021836 263.0390625 875.09765625 C261.71646683 876.41959207 260.39356151 877.74121817 259.0703125 879.0625 C258.47743439 879.65740234 257.88455627 880.25230469 257.27371216 880.86523438 C253.56626253 884.55235444 249.73421075 888.04772164 245.77494812 891.46316528 C243.36518056 893.54965694 241.02874232 895.71217272 238.6875 897.875 C234.19851943 901.96880209 229.58756524 905.85469667 224.859375 909.66796875 C222.36220461 911.70459542 219.90823951 913.78287127 217.46557617 915.88427734 C210.65948277 921.72822002 203.60918101 927.19708799 196.45703125 932.609375 C192.69142221 935.46153192 188.97110586 938.36731445 185.25878906 941.28833008 C152.37567278 967.11643276 113.5650998 995.15193813 70.0390625 995.53125 C66.40555452 994.89608665 65.18385339 993.92786226 63 991 C62.72727036 985.13631269 66.36260963 980.32009066 70 976 C73.2325289 973.42966125 76.71193012 971.44817214 80.3125 969.4375 C82.37144832 968.23590713 84.42867915 967.03136753 86.484375 965.82421875 C87.55107422 965.20337402 88.61777344 964.5825293 89.71679688 963.94287109 C95.24547442 960.67121613 100.65599998 957.21876851 106.0625 953.75 C107.1232373 953.06953613 108.18397461 952.38907227 109.27685547 951.68798828 C116.41976267 947.07839324 123.4077631 942.33135155 130.24658203 937.28222656 C132.24323423 935.82212947 134.25892188 934.39078275 136.27734375 932.9609375 C145.89665679 926.12665051 155.16795015 918.98454288 164.24707031 911.44873047 C166.75011324 909.38005961 169.28420376 907.35017785 171.8125 905.3125 C176.41773356 901.54395302 180.82873534 897.59211696 185.19921875 893.5546875 C186.66720608 892.2156865 188.13991638 890.88083647 189.65258789 889.5925293 C195.85282472 884.30554973 201.58019041 878.57134302 207.32739258 872.80297852 C209.058947 871.066064 210.79578359 869.33456111 212.53320312 867.60351562 C218.23545538 861.90493994 223.80080755 856.16803074 229 850 C229.845625 849.03578125 230.69125 848.0715625 231.5625 847.078125 C291.93686907 777.02837627 326.15433583 689.45113967 342 557 C342.05639648 556.13745605 342.11279297 555.27491211 342.17089844 554.38623047 C348.10117771 461.7650936 334.16731624 363.68247036 260 225 C259.56864746 224.42443359 259.13729492 223.84886719 258.69287109 223.25585938 C251.96553826 214.34502933 244.75493401 206.02759318 237 198 C236.3198584 197.29262695 235.6397168 196.58525391 234.93896484 195.85644531 C226.06433361 186.66983832 217.14883051 177.91716297 206.83886719 170.35595703 C204.89824876 168.92496995 202.98408369 167.46276119 201.0703125 165.99609375 C177.88902075 148.39592545 153.21216954 132.51651763 128 118 C127.20706543 117.54270508 126.41413086 117.08541016 125.59716797 116.61425781 C120.44208702 113.65925792 115.2341407 110.81205948 110 108 C109.09411133 107.50822266 108.18822266 107.01644531 107.25488281 106.50976562 C61.57882169 81.79453255 9.68157385 63.09857959 -42.9375 62.5625 C-43.68241699 62.55226807 -44.42733398 62.54203613 -45.19482422 62.53149414 C-49.82551192 62.60912466 -53.02589558 63.65534058 -57 66 C-56.96565841 71.22789928 -56.96565841 71.22789928 -54.69140625 75.76171875 C-44.67166188 84.94841278 -29.62240103 84.9067063 -16.75 85.4375 C-7.32608633 85.8506806 1.76875219 87.07017868 11 89 C11.71494629 89.14888672 12.42989258 89.29777344 13.16650391 89.45117188 C77.00326606 103.3268514 141.99176412 143.96452007 189.453125 187.671875 C191.58211386 189.61800592 193.74156653 191.50573432 195.9375 193.375 C199.44768617 196.43016204 202.76488168 199.65676107 206.0625 202.9375 C206.54517334 203.41558105 207.02784668 203.89366211 207.52514648 204.38623047 C211.54601498 208.42405321 215.28209903 212.68382806 219 217 C219.53101318 217.60835693 220.06202637 218.21671387 220.60913086 218.84350586 C282.00718005 289.53361521 300.98621418 379.00586804 308.203125 507.1171875 C308.20595238 507.9351392 308.20877975 508.7530909 308.21169281 509.59582901 C308.22651104 513.92814684 308.2358484 518.26043288 308.24023438 522.59277344 C308.24460377 526.09646096 308.25846146 529.59990013 308.28125 533.10351562 C308.93829441 636.31613318 272.24345916 726.22476266 212.34814453 809.12792969 C210.82782005 811.23909378 209.31816301 813.35769576 207.80859375 815.4765625 C201.79909546 823.8898601 195.68179684 832.10320842 189 840 C188.15969238 841.00796631 187.31938477 842.01593262 186.45361328 843.05444336 C179.44235665 851.40811313 172.04538896 859.26801727 164.30883789 866.9519043 C162.42811472 868.82183141 160.55843181 870.70232638 158.68945312 872.58398438 C151.76302808 879.51797984 144.69575427 885.92089843 137 892 C135.90968653 892.9228051 134.8250859 893.85246728 133.75 894.79296875 C67.34288418 952.61621022 -19.34594655 988.51517722 -207.5625 1020.5625 C-208.50673828 1020.60568359 -209.45097656 1020.64886719 -210.42382812 1020.69335938 C-225.339878 1021.31445068 -240.22410662 1021.09392732 -255.125 1020.25 C-255.89246552 1020.20676605 -256.65993103 1020.1635321 -257.45065308 1020.11898804 C-331.75653686 1015.81566887 -414.5704501 995.75943471 -476 952 C-476.76602539 951.45875488 -477.53205078 950.91750977 -478.32128906 950.35986328 C-489.02280173 942.75728565 -499.18166389 934.70707303 -509 926 C-510.37461834 924.81205822 -511.74955738 923.6244873 -513.125 922.4375 C-514.41971113 921.29510782 -515.71113717 920.14898625 -517 919 C-517.83015625 918.26265625 -518.6603125 917.5253125 -519.515625 916.765625 C-525.95849216 910.95648248 -532.16798659 904.93630156 -538.3125 898.8125 C-539.06515137 898.06444092 -539.81780273 897.31638184 -540.59326172 896.5456543 C-545.26674579 891.85924862 -549.71393221 887.04232203 -554 882 C-554.82310669 881.03694946 -554.82310669 881.03694946 -555.6628418 880.05444336 C-580.03501529 851.34864313 -609.48090839 812.32110894 -609.3125 772.8125 C-609.32861328 772.04486328 -609.34472656 771.27722656 -609.36132812 770.48632812 C-609.3662164 764.78170989 -608.3573449 760.44153579 -604.25 756.1875 C-601.08470452 754.51692739 -598.57532268 754.12328699 -595 754 C-582.012977 759.48723223 -574.06080334 773.31492588 -566.02050781 784.26513672 C-560.70049465 791.46605351 -555.23555729 798.55938681 -549.78808594 805.6640625 C-548.19888135 807.74018341 -546.61822712 809.82249379 -545.0390625 811.90625 C-539.29058709 819.42794882 -533.08977235 826.38671745 -526.5546875 833.234375 C-523.93562445 835.98000574 -521.40323506 838.78910445 -518.88671875 841.62890625 C-513.67229307 847.44465694 -508.18395604 852.96700607 -502.65209961 858.47827148 C-500.9329133 860.19207233 -499.21917417 861.91119082 -497.50585938 863.63085938 C-491.83947395 869.30092879 -486.12935645 874.82589095 -480 880 C-479.01257813 880.86882813 -478.02515625 881.73765625 -477.0078125 882.6328125 C-414.98636255 936.25027194 -314.18322351 978.65898818 -231 973 C-229.32762544 972.69659889 -227.65843304 972.37214076 -226 972 C-225.79029441 967.85906302 -225.79029441 967.85906302 -227 964 C-228.88757289 963.35998331 -228.88757289 963.35998331 -231.23046875 962.95703125 C-232.15931885 962.77406494 -233.08816895 962.59109863 -234.04516602 962.40258789 C-235.08213623 962.20785889 -236.11910645 962.01312988 -237.1875 961.8125 C-238.27667725 961.60036865 -239.36585449 961.3882373 -240.48803711 961.16967773 C-247.40682359 959.83443994 -254.33800246 958.57325238 -261.2734375 957.328125 C-337.95047026 943.54337574 -402.34416717 908.72382218 -462 859 C-462.57975586 858.51934082 -463.15951172 858.03868164 -463.75683594 857.54345703 C-471.14927507 851.4070971 -478.33067688 845.0713534 -485.36083984 838.52148438 C-487.15623191 836.85498402 -488.96255047 835.20079925 -490.76953125 833.546875 C-497.10126418 827.72835484 -503.26261792 821.89783916 -508.91015625 815.3984375 C-511.12999867 812.85080527 -513.43777915 810.40140253 -515.75 807.9375 C-564.46006675 754.17546038 -586.09343586 683.891968 -591 613 C-591.05327454 612.24315918 -591.10654907 611.48631836 -591.16143799 610.70654297 C-597.27558217 522.60291952 -597.07877599 433.5234298 -502 253 C-499.76027676 250.4403163 -497.50027948 247.90718583 -495.1953125 245.40625 C-494.01455846 244.11204272 -492.84049341 242.81068982 -491.71166992 241.47094727 C-485.88686052 234.60357938 -479.46661596 228.31619305 -473.09399414 221.96362305 C-471.0673702 219.94235732 -469.04614453 217.91580426 -467.02539062 215.88867188 C-454.61423527 203.4699639 -454.61423527 203.4699639 -448 198 C-447.43321533 197.52119385 -446.86643066 197.0423877 -446.2824707 196.54907227 C-429.20891043 182.23143246 -410.34704062 170.95726928 -391 160 C-390.31405762 159.6086084 -389.62811523 159.2172168 -388.92138672 158.81396484 C-358.09880714 141.33362476 -324.27024064 128.46805497 -291.51831055 115.1159668 C-290.70027451 114.78241684 -289.88223846 114.44886688 -289.03941345 114.10520935 C-287.49555115 113.47620778 -285.951347 112.84804443 -284.40675354 112.22084045 C-280.66103691 110.70551485 -280.66103691 110.70551485 -277 109 C-276.34444881 106.47266765 -276.34444881 106.47266765 -276 104 C-284.73067352 103.52894453 -292.53358731 104.88336122 -301 106.9375 C-301.64795532 107.09238892 -302.29591064 107.24727783 -302.96350098 107.40686035 C-326.17316655 112.98040621 -348.24262224 121.23476654 -370 131 C-371.38759521 131.62044189 -371.38759521 131.62044189 -372.80322266 132.25341797 C-422.8226958 154.82085075 -472.24891186 189.00111855 -508.17578125 230.90234375 C-509.4196954 232.33271184 -510.68934069 233.74100725 -511.98046875 235.12890625 C-519.25667234 242.96175929 -525.62015827 251.43699855 -532 260 C-532.81307617 261.0837793 -532.81307617 261.0837793 -533.64257812 262.18945312 C-592.15375716 340.4155902 -617.58917756 438.18068712 -619.47680664 534.82495117 C-619.8968618 555.52335766 -619.8968618 555.52335766 -624.125 561.625 C-627.19917707 564.16453758 -628.9670326 564.78608543 -632.95703125 564.44921875 C-639.65207376 562.97707747 -644.83732365 558.22501384 -649 553 C-653.25887742 545.54175192 -655.06160842 538.12909264 -656.1875 529.6875 C-656.41469727 528.17833008 -656.41469727 528.17833008 -656.64648438 526.63867188 C-659.36200285 507.76870732 -660.41149929 488.9276268 -660.375 469.875 C-660.37445618 468.79416138 -660.37391235 467.71332275 -660.37335205 466.59973145 C-660.19640763 389.4774451 -636.58361416 314.2601692 -594 250 C-593.31623291 248.96504395 -593.31623291 248.96504395 -592.61865234 247.90917969 C-583.12088251 233.61638607 -572.74977659 219.98854226 -561.55078125 206.98828125 C-559.1195118 204.14000999 -556.77419105 201.23847916 -554.4375 198.3125 C-550.74381725 193.76642892 -546.77580514 189.63970495 -542.5546875 185.58203125 C-540.5002241 183.50557818 -538.60783498 181.40661133 -536.7109375 179.19140625 C-532.97595273 174.88262222 -528.93052538 170.99691192 -524.75 167.125 C-524.00129639 166.42737549 -523.25259277 165.72975098 -522.48120117 165.01098633 C-520.99433794 163.62759328 -519.50570705 162.24609716 -518.01513672 160.86669922 C-516.31745737 159.29407306 -514.62761613 157.71379386 -512.94140625 156.12890625 C-506.56525166 150.20751455 -499.85782736 144.83232375 -492.97021484 139.52880859 C-490.87959992 137.90657432 -488.80800363 136.26207472 -486.73828125 134.61328125 C-463.77366035 116.39047603 -438.62300925 101.17825968 -413 87 C-412.19755859 86.55479004 -411.39511719 86.10958008 -410.56835938 85.65087891 C-360.85669514 58.29325766 -306.04608185 38.66105426 -251.20684814 24.56781006 C-249.0193475 24.00497801 -246.83362041 23.43561209 -244.64794922 22.86572266 C-205.33567425 12.678323 -164.90934558 5.67497121 -124.64355469 0.47167969 C-122.27528881 0.16509367 -119.90858333 -0.15389006 -117.54394531 -0.48730469 C-79.39267283 -5.78457556 -38.09740254 -5.66458349 0 0 Z " fill="#EE3A43" transform="translate(674,3)"/>
<path d="M0 0 C9.79596449 8.11665629 10.78506364 22.29917238 13.25708008 34.07299805 C14.69799804 40.83940753 16.37996138 47.46505953 18.46386719 54.06201172 C19.78333131 58.25403776 20.63585929 62.36120088 21.375 66.6875 C22.27600985 70.56113636 22.27600985 70.56113636 25.13671875 73.0703125 C27.80701561 73.88731154 30.43420555 74.35053784 33.1875 74.8125 C35.17546874 75.38704185 37.15444381 75.99331468 39.125 76.625 C40.21683594 76.96144531 41.30867188 77.29789062 42.43359375 77.64453125 C47.61102117 79.25540617 52.78097063 80.88967771 57.94897461 82.53051758 C62.36229018 83.92946788 66.78275188 85.30114408 71.2109375 86.65234375 C94.96382322 93.95533556 118.37516528 101.91826868 141.1875 111.8125 C142.09338867 112.2053418 142.99927734 112.59818359 143.93261719 113.00292969 C149.71971829 115.53114928 155.45935067 118.15393735 161.1875 120.8125 C162.06132324 121.2132373 162.93514648 121.61397461 163.83544922 122.02685547 C202.77358716 139.90753886 202.77358716 139.90753886 207.1875 150.8125 C207.94449778 157.30105241 206.63755263 162.2499536 203.1875 167.8125 C199.71589339 171.73113541 195.45927346 174.50941179 190.17220688 174.99919128 C187.6414024 175.08495847 185.11772221 175.10234128 182.58544922 175.09960938 C181.61821017 175.10648773 180.65097113 175.11336609 179.65442181 175.12045288 C176.43365975 175.14133275 173.21300583 175.14857346 169.9921875 175.15625 C167.71361181 175.16925198 165.43504194 175.18331117 163.15647888 175.19836426 C158.3088908 175.22913588 153.46131564 175.25479114 148.61367798 175.27636719 C136.04564824 175.33378247 123.47790061 175.43020266 110.91015625 175.53125 C109.66657789 175.54105896 108.42299953 175.55086792 107.14173698 175.56097412 C86.28095266 175.7297582 65.43301429 176.08438024 44.58200836 176.74642944 C42.51326573 176.81207902 40.44447487 176.87599744 38.37567139 176.93969727 C34.60048578 177.05815901 30.82560521 177.18306247 27.05078125 177.3125 C25.99120712 177.34790894 24.931633 177.38331787 23.83995056 177.4197998 C18.16128086 177.63084111 12.53467501 178.03030522 6.87892151 178.57617188 C2.44229367 178.96574294 -1.99978457 179.13772128 -6.44921875 179.3125 C-8.42773518 179.39581422 -10.40625078 179.47914813 -12.38476562 179.5625 C-15.45219186 179.68845414 -18.51966061 179.81329606 -21.5871582 179.9375 C-24.58296638 180.05974865 -27.57858842 180.18597909 -30.57421875 180.3125 C-31.48274094 180.34794922 -32.39126312 180.38339844 -33.32731628 180.41992188 C-37.21988812 180.58528065 -41.06508095 180.80224133 -44.92895508 181.31201172 C-49.0213715 181.83941812 -53.06998371 182.10764778 -57.1875 182.3203125 C-103.35981265 184.92852166 -149.28297432 190.43488935 -195.07907104 196.76374817 C-203.83199552 197.96641987 -212.59910705 199.04748231 -221.36846924 200.12249756 C-234.15227564 201.68998764 -246.90544213 203.35386028 -259.63793945 205.30224609 C-268.00354787 206.57286028 -276.38516295 207.68308698 -284.77719116 208.76068115 C-303.55697131 211.17488605 -322.28125791 213.91673455 -341.00708008 216.71630859 C-356.93436901 219.09659349 -372.86890363 221.41898971 -388.8125 223.6875 C-389.83244049 223.83266052 -390.85238098 223.97782104 -391.90322876 224.12738037 C-399.65526589 225.23016216 -399.65526589 225.23016216 -403.34843445 225.75201416 C-407.24123036 226.30228244 -411.13303091 226.85677973 -415.02148438 227.43701172 C-436.78630184 230.65919349 -436.78630184 230.65919349 -442.5625 227 C-445.62392913 224.02361057 -447.14236542 221.86495276 -447.375 217.625 C-447.22325979 212.68945017 -445.50332834 210.20219582 -442.08203125 206.75390625 C-438.23429566 203.46246978 -434.10622354 200.74697859 -429.81396484 198.0703125 C-427.52415734 196.63129222 -425.25637324 195.16050439 -422.98828125 193.6875 C-402.72372128 180.57864719 -381.85349152 168.62634283 -360.55810547 157.27929688 C-358.05474807 155.94191725 -355.55953042 154.59070226 -353.06640625 153.234375 C-329.525806 140.51604595 -304.90166538 129.82531395 -279.97265625 120.1484375 C-278.83916748 119.7052417 -277.70567871 119.2620459 -276.5378418 118.80541992 C-274.36510122 117.95883799 -272.1883628 117.12241863 -270.00708008 116.2980957 C-269.02247803 115.91484131 -268.03787598 115.53158691 -267.0234375 115.13671875 C-265.72865479 114.6430481 -265.72865479 114.6430481 -264.40771484 114.1394043 C-257.41966628 110.56649329 -253.80753348 105.33355353 -249.671875 98.8828125 C-248.82124481 97.5817305 -248.82124481 97.5817305 -247.95343018 96.25436401 C-246.14743487 93.48782724 -244.35468655 90.71299732 -242.5625 87.9375 C-241.37459288 86.11139667 -240.18579827 84.28587034 -238.99609375 82.4609375 C-236.67972106 78.90633224 -234.36664174 75.34961852 -232.05566406 71.79150391 C-229.13097156 67.29491072 -226.18743475 62.81141992 -223.21875 58.34375 C-222.83031921 57.75675323 -222.44188843 57.16975647 -222.04168701 56.56497192 C-209.40893192 37.62139612 -209.40893192 37.62139612 -200.6784668 35.61254883 C-199.04290018 35.31266244 -197.40353011 35.03309423 -195.76171875 34.76953125 C-194.83603088 34.60368027 -193.91034302 34.43782928 -192.956604 34.26695251 C-190.9035838 33.90022234 -188.84909324 33.541656 -186.79342651 33.19006348 C-180.92202388 32.18268858 -175.06325724 31.10583589 -169.203125 30.03515625 C-168.55293333 29.91702953 -167.90274166 29.79890282 -167.23284721 29.6771965 C-147.66735202 26.11918158 -128.1880632 22.11997639 -108.70053482 18.16137314 C-105.78214983 17.56902548 -102.86347013 16.97815436 -99.94467163 16.3878479 C-71.78968665 10.69497712 -71.78968665 10.69497712 -43.69590759 4.70892334 C-7.51061434 -3.17114828 -7.51061434 -3.17114828 0 0 Z " fill="#FEFEFE" transform="translate(657.8125,203.1875)"/>
<path d="M0 0 C0.99 0.66 1.98 1.32 3 2 C6.51391261 24.22549728 -2.61520771 49.68113048 -8 71 C-7.04738281 70.55527344 -6.09476563 70.11054687 -5.11328125 69.65234375 C-3.84667246 69.08002422 -2.57972736 68.50844859 -1.3125 67.9375 C-0.37374023 67.49567383 -0.37374023 67.49567383 0.58398438 67.04492188 C4.46021568 65.31989747 6.92642725 64.63694984 11 66 C11.69140625 67.71484375 11.69140625 67.71484375 12 70 C7.76543603 77.99862083 0.06165355 83.43642559 -7.0234375 88.75 C-11.15575062 91.87363826 -12.26371116 93.32875663 -13.41015625 98.30078125 C-13.67328613 99.40929443 -13.93641602 100.51780762 -14.20751953 101.65991211 C-14.48966309 102.86526611 -14.77180664 104.07062012 -15.0625 105.3125 C-17.59882233 115.79610177 -20.42028418 126.13811818 -23.625 136.4375 C-23.984729 137.60128174 -24.34445801 138.76506348 -24.71508789 139.96411133 C-32.86829431 165.82862497 -32.86829431 165.82862497 -43.3125 171.9375 C-48.02108849 173.29421194 -52.14502124 173.82518616 -57 173 C-61.20600232 170.62934415 -63.17526706 168.23023906 -64.875 163.8125 C-69.17945911 148.3011651 -63.38855502 130.28139616 -60 115 C-61.13050781 115.47308594 -62.26101563 115.94617188 -63.42578125 116.43359375 C-73.68524423 120.66323009 -84.03676869 124.48202471 -94.5625 128 C-95.74561768 128.39759521 -96.92873535 128.79519043 -98.14770508 129.20483398 C-99.25525146 129.57036377 -100.36279785 129.93589355 -101.50390625 130.3125 C-102.49205322 130.63863281 -103.4802002 130.96476563 -104.49829102 131.30078125 C-107 132 -107 132 -110 132 C-110.16435547 133.68029297 -110.16435547 133.68029297 -110.33203125 135.39453125 C-110.95127034 140.31926515 -112.27079542 144.94050916 -113.6875 149.6875 C-114.23602788 151.55979309 -114.7841951 153.43219189 -115.33203125 155.3046875 C-115.61127441 156.25311523 -115.89051758 157.20154297 -116.17822266 158.17871094 C-116.95509106 160.84582063 -117.70772539 163.51817955 -118.44921875 166.1953125 C-121.11262 175.79234651 -123.95753855 185.32858853 -127 194.8125 C-127.3079248 195.80870361 -127.61584961 196.80490723 -127.93310547 197.83129883 C-130.40904055 205.39066619 -133.61569956 212.26312834 -140.6875 216.4375 C-146.84282166 219.34095361 -152.25888614 219.74107609 -159 219 C-163.67603373 216.57848253 -165.27233731 214.01361857 -167.375 209.25 C-173.85462419 188.46578174 -165.96133404 158.79514304 -156.859375 139.59375 C-156.43398438 138.80484375 -156.43398438 138.80484375 -156 138 C-156.57105469 138.03480469 -157.14210938 138.06960938 -157.73046875 138.10546875 C-166.92255426 138.41235873 -177.97588945 137.48379435 -185 131 C-188.18342608 127.0633974 -189.8226529 123.09057264 -189.49609375 117.984375 C-188.4802279 113.92091159 -186.22238403 111.55538211 -183 109 C-175.44598733 105.36872256 -167.41368118 103.95551844 -159.1875 102.75 C-158.09501953 102.57726562 -157.00253906 102.40453125 -155.87695312 102.2265625 C-150.85400804 101.45615339 -146.09181901 100.91166725 -141 101 C-140.90195068 100.31945557 -140.80390137 99.63891113 -140.70288086 98.93774414 C-139.8493556 95.37037023 -138.37126458 92.26395205 -136.75390625 88.99609375 C-136.26406502 87.98914459 -136.26406502 87.98914459 -135.764328 86.96185303 C-134.70297632 84.7841151 -133.63318163 82.61066421 -132.5625 80.4375 C-131.82489062 78.93219679 -131.08758743 77.42674351 -130.35058594 75.92114258 C-128.89558138 72.95155744 -127.43675942 69.9838917 -125.97509766 67.01757812 C-124.34718888 63.71163534 -122.73770722 60.39720417 -121.13671875 57.078125 C-113.28532522 40.90825346 -104.52946925 24.87104424 -93 11 C-92.38511719 10.26007812 -91.77023437 9.52015625 -91.13671875 8.7578125 C-88.2086089 5.52455595 -86.51337198 4.15401159 -82.25 2.875 C-79 3 -79 3 -77.125 4.3125 C-72.91502654 10.62746019 -74.42179109 20.41225233 -75.7890625 27.609375 C-76.74345573 32.10350355 -77.83376228 36.55660099 -79 41 C-79.2935437 42.16233154 -79.2935437 42.16233154 -79.59301758 43.34814453 C-81.76160391 51.66729723 -84.50715175 59.79063175 -87.2434082 67.93603516 C-88.06746809 70.38979321 -88.88661612 72.845151 -89.70507812 75.30078125 C-90.23148639 76.87509514 -90.75816924 78.44931724 -91.28515625 80.0234375 C-91.52790787 80.75057953 -91.77065948 81.47772156 -92.02076721 82.22689819 C-93.24461801 85.86456395 -94.52915176 89.45456811 -96 93 C-95.00484375 92.75765625 -94.0096875 92.5153125 -92.984375 92.265625 C-84.03897757 90.11170171 -75.07307481 88.15723271 -66.04199219 86.39550781 C-64.472501 86.08906193 -62.90378308 85.77862407 -61.3359375 85.46386719 C-59.71894991 85.14276806 -58.0988426 84.83713603 -56.4765625 84.54394531 C-55.66960937 84.38764648 -54.86265625 84.23134766 -54.03125 84.0703125 C-53.30486328 83.93641113 -52.57847656 83.80250977 -51.83007812 83.66455078 C-49.61516242 83.06489259 -49.61516242 83.06489259 -48 80 C-47.28910506 77.65108463 -46.63426856 75.30688445 -46 72.9375 C-24.42241135 -3.2256015 -24.42241135 -3.2256015 0 0 Z " fill="#FEFDFD" transform="translate(509,624)"/>
<path d="M0 0 C2.9375 1.875 2.9375 1.875 5 5 C6.49086584 13.34803899 3.33422329 20.91386996 0.5 28.625 C-4.395365 40.57508088 -4.395365 40.57508088 -2.75 52.875 C0.98100604 57.40550734 5.99722748 57.64982632 11.5 58.5 C20.60824742 59.90721649 20.60824742 59.90721649 24 62 C24.3125 65.25 24.3125 65.25 24 69 C20.4351497 72.51767837 16.36366673 74.35826204 11.75 76.125 C10.75093628 76.51292725 10.75093628 76.51292725 9.73168945 76.90869141 C-1.79607759 81.28781399 -11.78930678 82.82600171 -23.51953125 78.2265625 C-25.84138591 77.07843279 -27.52450946 75.91256452 -29.4375 74.1875 C-30.283125 73.465625 -31.12875 72.74375 -32 72 C-35.17776909 72.34215276 -37.32319765 73.70529316 -39.90625 75.51171875 C-41.01262817 76.27343384 -41.01262817 76.27343384 -42.14135742 77.05053711 C-42.91970947 77.59073486 -43.69806152 78.13093262 -44.5 78.6875 C-60.69355927 89.66473262 -78.88432843 98.82438953 -99 97 C-102.21474153 95.99015664 -105.08680142 94.68619246 -108 93 C-108.061875 93.721875 -108.12375 94.44375 -108.1875 95.1875 C-109.97445634 101.37311811 -115.76405286 104.45640255 -121.0625 107.515625 C-134.16461616 114.13637519 -147.24322472 116.28398689 -161.77285194 116.30496025 C-163.85706529 116.3086946 -165.94083173 116.32560813 -168.02494812 116.34571838 C-173.94224647 116.40046155 -179.85960706 116.43166692 -185.77709961 116.45629883 C-189.42096782 116.4723648 -193.06451323 116.50276997 -196.7082119 116.54106331 C-198.73398589 116.55803417 -200.75987576 116.55876629 -202.78572083 116.5589447 C-210.46001393 116.63987982 -217.43590283 117.48789966 -224.88591003 119.35926819 C-229.18654689 120.244135 -232.61136032 120.91357873 -236.375 118.4375 C-238.67459593 114.9881061 -238.53817709 113.10360029 -238 109 C-233.12428041 94.01674934 -221.67208852 83.63652747 -209.53198242 74.32128906 C-204.98636808 70.82287361 -200.62666361 67.15435448 -196.3125 63.375 C-191.20693803 58.90429279 -186.04087681 54.53727789 -180.76953125 50.26171875 C-177.50909958 47.59910953 -174.28077639 44.90080727 -171.0625 42.1875 C-170.24628174 41.50276611 -170.24628174 41.50276611 -169.41357422 40.80419922 C-166.47297844 38.31840092 -163.7043088 35.73837084 -161 33 C-161.77786865 33.09087891 -162.5557373 33.18175781 -163.35717773 33.27539062 C-177.19032789 34.85922286 -191.00323128 36.30610259 -204.9375 36.5 C-205.95320068 36.53029297 -206.96890137 36.56058594 -208.01538086 36.59179688 C-214.66673123 36.59629673 -218.05698211 35.52121369 -223 31 C-225.700102 26.29659652 -226.78495999 22.39659996 -226 17 C-224.19996218 14.03327099 -222.15300143 11.57650071 -219 10 C-216.99447361 10.02334475 -214.98880483 10.05301149 -212.98413086 10.1159668 C-200.69138316 10.46126208 -189.07916121 8.69641882 -177.00927734 6.53027344 C-172.43316427 5.72390336 -167.84244075 5.01871694 -163.25 4.3125 C-157.84923148 3.49487498 -157.84923148 3.49487498 -152.4921875 2.4375 C-140.70142784 0.36764877 -128.81466578 1.32326858 -118.8125 8.1875 C-116.19487296 12.24933506 -116.09504735 15.30322098 -117 20 C-120.87202094 31.63458924 -130.68524501 39.84151707 -139.21875 48.18286133 C-141.96183645 50.87946202 -144.56520026 53.62492116 -147.05859375 56.5546875 C-152.50808186 62.85961851 -158.52730759 68.63226932 -164.4375 74.5 C-165.6584369 75.71591114 -166.87914192 76.93205516 -168.09960938 78.1484375 C-171.06374013 81.10164966 -174.03098958 84.05169398 -177 87 C-173.38705545 87.96967211 -169.99279898 88.24072194 -166.25 88.4375 C-160.86677587 88.74219838 -155.59242176 89.29775817 -150.25 90.0625 C-144.07240066 90.91553839 -137.9849746 91.18690483 -131.75 91.1875 C-130.53425293 91.18858765 -130.53425293 91.18858765 -129.29394531 91.18969727 C-125.10311393 91.17479997 -125.10311393 91.17479997 -120.98535156 90.4934082 C-117.99684617 89.75069185 -115.0629697 89.94109674 -112 90 C-112.28875 89.47535156 -112.5775 88.95070313 -112.875 88.41015625 C-117.16476996 79.45824047 -117.90881868 69.08174712 -114.9296875 59.58984375 C-103.44740304 35.27626327 -77.28196614 15.62905308 -52.67626953 6.10009766 C-44.64191121 3.26617295 -36.68208185 0.83892148 -28.11328125 0.9375 C-27.01048828 0.94523437 -25.90769531 0.95296875 -24.77148438 0.9609375 C-23.63001953 0.97382813 -22.48855469 0.98671875 -21.3125 1 C-19.03780716 1.02542977 -16.76305989 1.04648983 -14.48828125 1.0625 C-13.48321533 1.07410156 -12.47814941 1.08570313 -11.44262695 1.09765625 C-7.34168659 0.93370061 -4.38782794 -0.44621979 0 0 Z " fill="#FEFDFD" transform="translate(802,453)"/>
<path d="M0 0 C10.54453173 10.32359868 17.10140482 23.5727191 17.375 38.375 C17.48095966 57.41691447 6.86180447 74.03058006 -6.12109375 87.3125 C-24.51257772 105.31451725 -51.276854 118.25192452 -77.125 119.625 C-80.9670851 119.50599736 -81.94272569 119.20719806 -85.25 116.9375 C-87.0625 114.125 -87.0625 114.125 -87.75 111.625 C-86.71890664 107.8755696 -84.20471946 106.17242582 -81.0625 104.125 C-77.24447494 102.29792947 -73.31942909 100.78088617 -69.375 99.25 C-57.99732591 94.66609706 -48.60900868 89.91223794 -39.62109375 81.41015625 C-38.0625 80.125 -38.0625 80.125 -36.0625 80.125 C-35.80210937 79.54878906 -35.54171875 78.97257813 -35.2734375 78.37890625 C-33.97878109 75.9691748 -32.46447492 74.13822397 -30.6875 72.0625 C-23.36379903 62.65941838 -21.77426646 52.89175173 -23.0625 41.125 C-24.72377625 34.77479611 -28.75695542 30.758926 -34.0625 27.125 C-40.58441294 23.45132618 -46.72756319 22.36919202 -54.125 21.875 C-55.08599609 21.79765625 -56.04699219 21.7203125 -57.03710938 21.640625 C-59.37819566 21.45426987 -61.71933841 21.28268506 -64.0625 21.125 C-64.00022217 21.82898926 -63.93794434 22.53297852 -63.8737793 23.25830078 C-61.64616179 53.80264468 -83.60131852 92.17300506 -95.0625 120.125 C-95.49405396 121.1795639 -95.49405396 121.1795639 -95.93432617 122.25543213 C-100.18964869 132.65139629 -104.5201941 143.01456113 -108.89483643 153.36083984 C-110.17962692 156.40226956 -111.46061017 159.44529069 -112.74169922 162.48828125 C-115.161472 168.2303577 -117.59690275 173.96561412 -120.04125977 179.69726562 C-121.00303886 181.95724528 -121.96081669 184.21893253 -122.91430664 186.48242188 C-136.22964253 218.05791773 -136.22964253 218.05791773 -146.0625 224.125 C-149.75 225.125 -149.75 225.125 -153.0625 225.125 C-156.11002358 223.23343364 -157.01389331 220.46580892 -158.0625 217.125 C-162.53496149 171.15541924 -142.11013904 120.12962187 -121.18164062 80.2734375 C-119.88621831 77.78658837 -118.62320371 75.28429879 -117.359375 72.78125 C-110.04373914 58.39914016 -102.01515465 44.55398197 -93.0625 31.125 C-93.91972656 31.09921875 -94.77695312 31.0734375 -95.66015625 31.046875 C-108.79203737 30.39546263 -108.79203737 30.39546263 -114.0625 25.125 C-114.85311362 17.18845558 -113.52159234 11.10073599 -108.625 4.6875 C-83.08227115 -23.16594026 -28.09345198 -23.52231403 0 0 Z " fill="#FEFDFD" transform="translate(379.0625,470.875)"/>
<path d="M0 0 C2.26062329 2.25013316 2.93909034 3.61290514 4.0625 6.6875 C3.0618277 26.70094599 -14.91626047 43.65822067 -28.49707031 56.82446289 C-31.23346403 59.48494319 -33.81564552 62.20029552 -36.296875 65.1015625 C-41.09786122 70.65864607 -46.35105272 75.77071023 -51.5625 80.9375 C-52.5907298 81.96070139 -53.61872626 82.98413733 -54.64648438 84.0078125 C-57.13664338 86.48707999 -59.62992833 88.96317538 -62.125 91.4375 C-61.09246094 91.2209375 -60.05992187 91.004375 -58.99609375 90.78125 C-35.8994152 86.24473856 -13.38001482 89.00822636 9.75318909 91.72790527 C27.10918885 93.76073695 44.63489929 94.95371337 61.875 91.4375 C63.97252665 91.02786297 66.07103374 90.62392716 68.17041016 90.22387695 C69.55567401 89.9578444 70.93960243 89.6847174 72.32177734 89.40307617 C76.22638211 88.6327564 79.89709209 88.12114208 83.875 88.4375 C85.875 90.4375 85.875 90.4375 86.375 92.75 C85.64511181 96.67314902 82.97502397 98.22629707 79.875 100.4375 C77.46079834 101.91449067 74.97968643 103.19579984 72.4375 104.4375 C71.38925049 104.95123169 71.38925049 104.95123169 70.31982422 105.4753418 C52.16542946 114.15583354 33.6041389 116.81680536 13.65631485 117.03338623 C10.91862414 117.06348041 8.18167338 117.11112165 5.44430542 117.16259766 C-0.37027001 117.26902485 -6.18504387 117.35488472 -12 117.4375 C-18.74719002 117.53348748 -25.49400696 117.63861955 -32.24069595 117.76531982 C-34.89667811 117.81086229 -37.55250313 117.84073011 -40.20870972 117.86962891 C-57.93095483 118.14317868 -74.35930168 120.75007268 -91.125 126.4375 C-109.46043578 132.30332569 -109.46043578 132.30332569 -116.9375 129.3125 C-120.5992582 126.17385012 -122.75795994 123.6115065 -123.58203125 118.73046875 C-124.02684815 110.67204164 -121.93096573 105.77218249 -117.125 99.4375 C-116.49464844 98.59960938 -115.86429687 97.76171875 -115.21484375 96.8984375 C-105.19584625 84.20146496 -93.73752745 72.06179829 -81.48046875 61.51171875 C-79.10882951 59.42326031 -76.79633171 57.28246203 -74.48706055 55.12573242 C-69.15431966 50.14752279 -63.73234761 45.38056357 -58.0390625 40.8125 C-53.85853549 37.40531445 -49.78794657 33.87323475 -45.71899414 30.33398438 C-41.33631819 26.5431591 -41.33631819 26.5431591 -39.125 25.4375 C-39.79402344 25.55867187 -40.46304688 25.67984375 -41.15234375 25.8046875 C-83.25883644 33.15212918 -83.25883644 33.15212918 -97.125 25.4375 C-100.88256447 22.71142382 -101.93850826 21.57717174 -102.6875 17 C-101.87162168 11.83277063 -99.20268691 7.7152579 -95.125 4.4375 C-92.77514648 4.05273438 -92.77514648 4.05273438 -89.99609375 4.03125 C-88.97088623 4.01143066 -87.94567871 3.99161133 -86.8894043 3.97119141 C-85.79152588 3.96007324 -84.69364746 3.94895508 -83.5625 3.9375 C-76.03608253 3.75258624 -68.71566759 3.47367912 -61.3125 2.0625 C-11.18982247 -7.34209404 -11.18982247 -7.34209404 0 0 Z " fill="#FEFCFC" transform="translate(565.125,489.5625)"/>
<path d="M0 0 C3.18614239 1.52065887 5.78932858 3.24131804 8 6 C9.65276289 14.83195172 6.90761903 21.97700648 3 29.75 C2.52304687 30.74515625 2.04609375 31.7403125 1.5546875 32.765625 C0.39011606 35.1879336 -0.79445816 37.59789375 -2 40 C-0.8140625 39.74605469 0.371875 39.49210938 1.59375 39.23046875 C9.15224156 37.62119074 16.70111844 36.03019134 24.3125 34.6875 C29.72496025 33.70442049 35.07127846 32.53325517 40.421875 31.2578125 C41.08644211 31.0998671 41.75100922 30.94192169 42.43571472 30.77919006 C45.80364428 29.97679719 49.16860361 29.16389907 52.53051758 28.33666992 C53.77986084 28.03607666 55.0292041 27.7354834 56.31640625 27.42578125 C57.43474854 27.15161377 58.55309082 26.87744629 59.70532227 26.5949707 C63.202224 25.9634813 66.45412272 25.89748553 70 26 C70.65234375 27.765625 70.65234375 27.765625 71 30 C68.19556064 35.98615756 62.4269397 39.081905 56.71484375 41.828125 C56.01282837 42.17174072 55.31081299 42.51535645 54.58752441 42.86938477 C47.15589905 46.47186878 39.60786841 49.78966707 32 53 C31.29531586 53.29859924 30.59063171 53.59719849 29.86459351 53.90484619 C20.45151654 57.88075483 11.00094352 61.6151094 1.3125 64.875 C-0.13672852 65.36613281 -0.13672852 65.36613281 -1.61523438 65.8671875 C-6.20500194 67.34967912 -10.11254113 68.40526193 -15 68 C-15.14042725 68.53625 -15.28085449 69.0725 -15.42553711 69.625 C-17.5624059 77.26463969 -20.56861299 84.49564543 -23.63647461 91.79403687 C-25.23106799 95.59265216 -26.80480797 99.39988702 -28.37890625 103.20703125 C-28.69324615 103.96691849 -29.00758606 104.72680573 -29.33145142 105.50971985 C-35.13912283 119.57683728 -40.53176905 133.78313218 -45.5859375 148.13671875 C-45.89863586 149.02125229 -46.21133423 149.90578583 -46.5335083 150.81712341 C-48.09733773 155.24112248 -49.64951324 159.66849201 -51.1796875 164.10424805 C-51.75214166 165.73372375 -52.3250381 167.36304417 -52.8984375 168.9921875 C-53.15225189 169.74203415 -53.40606628 170.4918808 -53.66757202 171.26445007 C-55.12607733 175.36524935 -56.50297474 178.32701101 -60 181 C-63.08824835 181.44117834 -65.01121293 181.56502118 -67.75 180 C-72.39406648 172.56949363 -71.35752842 162.92549073 -71.3125 154.5 C-71.31034485 153.78113617 -71.3081897 153.06227234 -71.30596924 152.32162476 C-71.25567045 141.89858141 -70.7916884 132.11987045 -68 122 C-67.59349374 120.41022175 -67.187263 118.82037304 -66.78125 117.23046875 C-63.14488314 103.47314093 -58.17632543 90.24164211 -53 77 C-53.71502686 77.01450195 -54.43005371 77.02900391 -55.16674805 77.04394531 C-64.91598557 77.15855554 -75.29811511 76.63217866 -83 70 C-84.85506839 66.28986322 -84.45334699 62.04907177 -84 58 C-82.39306865 54.7861373 -81.05663831 52.83021581 -78.25 50.625 C-73.60673703 49.33520473 -69.037911 49.85827194 -64.33300781 50.50073242 C-57.46230127 51.34130793 -50.40405805 52.10031473 -44 49 C-38.53803395 44.29844605 -35.10478697 37.63813792 -31.5 31.5 C-30.48938188 29.85628605 -29.47378413 28.21562293 -28.453125 26.578125 C-26.97139209 24.19908578 -25.49198722 21.81921437 -24.02880859 19.42871094 C-11.34672247 -1.21572026 -11.34672247 -1.21572026 0 0 Z " fill="#FEFCFC" transform="translate(727,586)"/>
<path d="M0 0 C2.875 0.9375 2.875 0.9375 5 3 C5.69217747 8.01828665 4.9709838 12.37402116 4.0259552 17.33015442 C2.01440766 27.91796477 0.77909363 38.56493639 -0.36254883 49.27661133 C-0.68902477 52.32674528 -1.02856399 55.37524001 -1.36914062 58.42382812 C-3.14024232 72.67742089 -3.14024232 72.67742089 -3 87 C-2.67 87.33 -2.34 87.66 -2 88 C-1.46903017 91.89377879 -1.7392501 93.59149183 -3.875 96.9375 C-7.73492254 99.48504888 -9.8085556 99.67462303 -14.30859375 98.95703125 C-22.25243471 96.13229825 -27.84317014 88.79920337 -31.81640625 81.640625 C-33.78813527 77.24165201 -34.98115166 72.70100199 -36 68 C-39.2268251 71.12273396 -42.22326745 74.37582039 -45.1875 77.75 C-57.77014758 91.69852709 -76.18110729 105.65975102 -95.875 106.6875 C-103.0682793 106.21011796 -108.8411612 103.41584342 -113.625 98.0625 C-119.50443977 85.09973517 -112.52342168 68.89638483 -107.90625 56.56274414 C-103.5324148 45.06482961 -103.5324148 45.06482961 -102 42 C-101.51952663 37.75581855 -101.41905613 35.75698746 -104.0625 32.3125 C-107.26402473 29.79215074 -110.40328838 27.90414144 -114 26 C-113.42782597 22.68139062 -112.52701944 21.19944285 -110 19 C-102.53925604 14.83227407 -93.25316648 14.98837592 -85 16 C-78.41519204 18.37809754 -74.96429024 22.73734224 -71.875 28.8515625 C-67.28452286 40.12282335 -70.82929419 51.85624197 -74 63 C-74.19110352 63.67208496 -74.38220703 64.34416992 -74.57910156 65.03662109 C-75.05055659 66.69170263 -75.52496652 68.34594198 -76 70 C-45.74799719 49.75830421 -45.74799719 49.75830421 -24.125 21.0625 C-11.94690832 -1.49336354 -11.94690832 -1.49336354 0 0 Z " fill="#FEFCFD" transform="translate(634,648)"/>
<path d="M0 0 C12.37914485 9.31716556 16.03509608 22.94935341 18.2109375 37.6640625 C18.95686229 44.16496993 19.35069913 50.6983011 19.7734375 57.2265625 C19.99738193 60.5825068 20.22764231 63.9379353 20.46484375 67.29296875 C20.54992188 68.5007473 20.54992188 68.5007473 20.63671875 69.73292542 C21.08716892 75.77622022 21.83244355 81.71872061 22.78735352 87.70507812 C23.66231052 93.81716968 24.43025086 99.98728708 21.5859375 105.6640625 C18.46845936 109.60192962 16.07425099 111.2483364 11.05859375 111.9765625 C-0.72504864 112.58770765 -12.47878434 107.61342485 -21.7890625 100.6640625 C-36.21320963 86.8389248 -40.4803562 62.35705067 -41.02734375 43.09375 C-41.05776278 40.57558303 -41.08232922 38.05733974 -41.1015625 35.5390625 C-41.13056641 34.29640625 -41.15957031 33.05375 -41.18945312 31.7734375 C-41.25942609 21.46049905 -40.069069 11.34831633 -33.4765625 3.0390625 C-24.73165377 -5.65084681 -10.52844591 -6.26110238 0 0 Z " fill="#EE3942" transform="translate(40.7890625,610.3359375)"/>
<path d="M0 0 C3.27469638 0.05858133 3.94789261 0.17322536 6.5625 2.375 C12.90556386 14.08527173 11.08162334 28.83522253 7.51171875 41.17578125 C3.99849297 52.55258387 -0.14120641 63.51779884 -5.61352539 74.09887695 C-10.39389304 83.34473774 -14.62578373 92.84843049 -18.8125 102.375 C-19.11381836 103.05820312 -19.41513672 103.74140625 -19.72558594 104.4453125 C-22.61567483 111.09570064 -24.36808609 116.84002595 -24.37890625 124.1328125 C-24.8125 126.375 -24.8125 126.375 -26.59765625 128.15234375 C-29.9469699 130.0012594 -33.13152074 130.00866954 -36.8125 129.375 C-45.10832685 125.14575494 -48.81087992 118.55197996 -51.859375 110.0625 C-57.15334379 89.58091582 -47.34406735 69.34665824 -37.40429688 51.90380859 C-29.50038335 38.58837794 -20.48930756 25.87374753 -11.35400391 13.38037109 C-8.49459477 9.45791498 -6.60344408 5.85236019 -4.8125 1.375 C-3.8125 0.375 -3.8125 0.375 0 0 Z " fill="#FEFDFD" transform="translate(439.8125,493.625)"/>
<path d="M0 0 C2.375 1.5 2.375 1.5 4 3 C3.48037338 7.29138573 2.57500627 10.21446401 0.2265625 13.8359375 C-0.34545898 14.72740479 -0.91748047 15.61887207 -1.50683594 16.53735352 C-2.43157715 17.94198853 -2.43157715 17.94198853 -3.375 19.375 C-4.00696289 20.34945068 -4.63892578 21.32390137 -5.29003906 22.32788086 C-7.1792644 25.22817044 -9.08517839 28.11655788 -11 31 C-11.52045898 31.7842334 -12.04091797 32.5684668 -12.57714844 33.37646484 C-33.54701868 64.78879241 -33.54701868 64.78879241 -44 67 C-49.00114197 67.52346897 -52.69059768 67.80167489 -57.0625 65.125 C-61.03331546 60.76991208 -60.62019402 55.80709927 -60.45703125 50.15234375 C-59.52341107 37.70889216 -50.48562984 28.27000098 -42 20 C-41.41605469 19.40703125 -40.83210938 18.8140625 -40.23046875 18.203125 C-30.97078633 9.48261396 -12.82124921 -1.04663259 0 0 Z " fill="#FEFCFD" transform="translate(492,414)"/>
<path d="M0 0 C-3.80530271 9.60017993 -3.80530271 9.60017993 -5.625 13.6875 C-7.13438523 16.92800305 -7.13438523 16.92800305 -7.4609375 20.34765625 C-9.78017893 25.85143984 -13.78439027 27.2387805 -19 29.75 C-19.90878906 30.21792969 -20.81757812 30.68585938 -21.75390625 31.16796875 C-29.20178832 34.90780143 -37.12228638 38.55190201 -45.625 38.1875 C-46.46289062 38.16042969 -47.30078125 38.13335938 -48.1640625 38.10546875 C-48.76992188 38.07066406 -49.37578125 38.03585937 -50 38 C-48.36546493 27.62345716 -40.86339027 19.48384812 -33 13 C-23.50063655 6.58090352 -11.70917623 -0.55757982 0 0 Z " fill="#EE3D46" transform="translate(773,478)"/>
<path d="M0 0 C2.97 0 5.94 0 9 0 C10.32 2.97 11.64 5.94 13 9 C14.32 6.03 15.64 3.06 17 0 C19.64 0 22.28 0 25 0 C25 7.26 25 14.52 25 22 C23.35 22 21.7 22 20 22 C19.67 18.37 19.34 14.74 19 11 C17.68 14.63 16.36 18.26 15 22 C13.35 21.67 11.7 21.34 10 21 C8.42141387 18.45163399 7.87482053 15.90072071 7 13 C6.67 15.97 6.34 18.94 6 22 C4.02 22 2.04 22 0 22 C0 14.74 0 7.48 0 0 Z " fill="#EE3942" transform="translate(948,913)"/>
<path d="M0 0 C6.27 0 12.54 0 19 0 C19 1.65 19 3.3 19 5 C17.02 5 15.04 5 13 5 C13 10.61 13 16.22 13 22 C11.02 22 9.04 22 7 22 C7 16.39 7 10.78 7 5 C4.69 5 2.38 5 0 5 C0 3.35 0 1.7 0 0 Z " fill="#EE3943" transform="translate(927,913)"/>
</svg>
